<?xml version="1.0" encoding="UTF-8" standalone="no"?>
<!-- Created with Inkscape (http://www.inkscape.org/) -->

<svg
   viewBox="0 0 173.39733 173.39733"
   version="1.1"
   id="svg1"
   xml:space="preserve"
   xmlns="http://www.w3.org/2000/svg"
   xmlns:svg="http://www.w3.org/2000/svg"><defs
     id="defs1" /><g
     id="layer2"
     fill="currentColor"><path
       style="stroke-width:0.264583"
       fill="currentColor"
       d="m 114.6611,173.39733 2.20789,-8.97868 -0.0228,-7.61085 5.99052,-16.49428 -8.41951,-10.28605 3.73951,-8.92102 -7.67285,-1.87545 1.35612,-7.36286 -6.2043,-2.89523 24.21185,-15.355856 12.10895,16.914726 4.14,-2.67858 -14.58301,-15.151337 2.76891,-2.147857 18.22614,15.550054 4.2412,-2.81666 -21.13223,-14.232226 2.12826,-2.956332 23.49334,12.161509 1.95544,-4.327781 -24.13007,-9.771716 5.3602,-4.359672 -7.71881,-8.953262 -9.09561,-15.356035 4.23621,-20.327678 0.90735,-21.823301 -12.94504,7.446058 -16.80143,15.568754 -8.994949,-0.465521 -9.930452,0.974339 -6.302113,-11.58357 -17.634482,-19.4092785 -7.863123,25.5615635 -4.300347,28.015136 -15.32664,16.846137 12.138527,9.230299 -23.336742,9.165982 2.919809,3.92105 22.318399,-11.490213 2.53303,2.466221 -22.673997,14.036077 4.365193,3.34934 20.19317,-16.000604 2.989111,2.859236 -12.309557,14.250218 5.230503,0.13308 8.778491,-12.649299 8.55045,4.821449 7.180606,5.69799 -8.082968,0.91822 -1.101365,6.14498 -3.831259,0.61624 -5.796685,-5.41489 -10.822659,2.19275 -22.096061,-3.90609 18.50068,26.71745 11.348223,-3.73826 11.536537,-2.70834 -5.725956,10.0573 -0.899158,13.57625 -21.653338,22.85637 -32.90820758850102,-1e-5 v -8.50531 L 8.8588404,147.57483 21.531302,132.39731 15.125679,106.95101 10.297456,71.704141 12.690991,41.632364 18.722484,23.154666 5.5431665,42.48128 0,58.157818 4.1149902e-7,1.9580078e-7 H 173.39732 L 173.39733,173.39733 Z"
       id="path1" /><path
       fill="currentColor"
       style="stroke-width:0.264583"
       d="m 67.223705,60.412698 11.902948,1.592585 3.557304,20.320651 4.201798,-16.325958 4.958657,7.32146 2.173335,8.242344 -8.058041,3.448588 -9.458389,-0.891908 -8.124431,-9.614096 z"
       id="path2" /><path
       fill="currentColor"
       style="stroke-width:0.264583"
       d="m 111.48379,81.103339 6.2654,3.558186 6.75294,-1.328415 4.71124,-8.706564 -0.60658,-14.558518 -5.18314,0.340765 -0.31658,13.3751 -3.53841,6.959785 -1.52809,-16.712327 -4.88584,7.905991 z"
       id="path3" /><path
       fill="currentColor"
       style="stroke-width:0.264583"
       d="M 59.789162,54.561655 68.772542,46.250227 81.668743,42.343308 72.02771,27.340345 62.38155,14.805294 58.596466,34.295905 Z"
       id="path4" /><path
       fill="currentColor"
       style="stroke-width:0.264583"
       d="m 131.04951,20.517497 -0.89573,17.331326 -3.80824,15.410111 -4.315,-6.223937 -5.56892,-4.251596 6.74406,-13.598299 z"
       id="path5" /><path
       fill="currentColor"
       style="stroke-width:0.264583"
       d="m 26.497423,111.16903 14.142624,18.87506 21.098584,-7.61135 -11.740951,-1.66591 -6.106584,-4.26427 8.478502,-0.35726 6.801389,3.11329 -7.29235,-7.98831 -10.94046,1.50418 z"
       id="path6" /><path
       fill="currentColor"
       style="stroke-width:0.264583"
       d="m 65.561408,126.84869 3.752249,-2.56031 -0.937289,-4.15781 2.075524,-3.28041 -0.28847,-4.86305 1.208564,-0.97478 -0.803005,-1.55365 -5.264553,0.63317 1.061916,6.88274 -2.008285,-0.13757 1.537031,3.18941 -2.028378,2.08209 z"
       id="path7" /><path
       fill="currentColor"
       style="stroke-width:0.264583"
       d="m 112.98082,158.68833 6.77859,-18.69826 -5.49448,-7.49369 -4.72896,9.92666 -19.424177,-15.20686 11.836017,5.37739 9.313,-0.44845 2.87776,-10.88597 -7.14474,-2.02297 0.88821,-6.20223 -4.2492,-1.93892 -1.71962,1.1819 2.59412,2.90848 -4.535746,1.32333 -12.202736,0.0495 -9.088292,-4.41885 -5.77097,0.10975 8.226742,11.67236 -7.106089,-3.78568 -0.308758,1.94027 0.131191,3.40002 -5.468199,2.92316 32.018367,17.51869 z"
       id="path8" /></g></svg>
